# xmcd
# 
# Track frame offsets:
#     182
#     17325
#     52992
#     75900
#     89715
#     147685
#     159975
#     165802
#     176492
#     196157
#     211257
#     241000
# 
# Disc length: 3728
# 
# Revision: 4
# Processed by: cddbd v1.5.2PL0 Copyright (c) Steve Scherf et al.
# Submitted via: BonkEnc v1.0.8
# 
DISCID=860e8e0c
DTITLE=James Brown - Revolution Of The Mind
DYEAR=1971
DGENRE=Funk
TTITLE0=Intro - It's A New Day So Let A Man Come In And Do The Popcorn
TTITLE1=Bewildered
TTITLE2=Sex Machine
TTITLE3=Escape-ism
TTITLE4=Make It Funky
TTITLE5=Try Me
TTITLE6=Fast Medley - (I Can't Stand It, Mother Popcorn, I Got \nthe Feelin')
TTITLE7=Give It Up Or Turnit A Loose
TTITLE8=Call Me Super Bad
TTITLE9=Get Up, Get Into It, Get Involved
TTITLE10=Soul Power
TTITLE11=Hot Pants (Set Got To Use What She Got To Get \nwhat She Wants)
EXTD=Live at The Apollo Vol.III\n2 LP Set On 1 CD
EXTT0=
EXTT1=
EXTT2=
EXTT3=
EXTT4=
EXTT5=
EXTT6=
EXTT7=
EXTT8=
EXTT9=
EXTT10=
EXTT11=
PLAYORDER=
